<svg width="20" height="20" viewBox="0 0 20 20" fill="none" xmlns="http://www.w3.org/2000/svg">
<path fill-rule="evenodd" clip-rule="evenodd" d="M17.3289 13.8477C17.2939 13.8743 17.2755 13.8893 17.2564 13.901C17.053 14.0318 16.8547 14.1785 16.6439 14.2885C15.8997 14.6793 15.1172 14.8618 14.3214 14.9685C13.8389 15.0335 13.3555 15.0543 12.8705 15.0502C12.3955 15.0468 11.9222 15.0177 11.453 14.9352C11.0539 14.8643 10.6555 14.7718 10.2605 14.6635C9.79969 14.5352 9.35302 14.3427 8.93552 14.051C8.85302 13.9927 8.77052 13.9318 8.67552 13.8635C8.67552 13.9135 8.68302 15.4302 8.67302 16.1535C8.66802 16.4893 8.77469 16.7377 8.96385 16.946C9.18302 17.1877 9.43719 17.3485 9.70302 17.4827C10.1772 17.7202 10.6689 17.8627 11.1697 17.9652C11.6455 18.0618 12.123 18.116 12.603 18.1335C13.4305 18.1635 14.2539 18.1068 15.0697 17.9143C15.5389 17.8035 15.9989 17.6543 16.4364 17.4077C16.6864 17.2668 16.9239 17.1002 17.1172 16.846C17.2589 16.6602 17.333 16.4443 17.3305 16.1777C17.3255 15.4402 17.3289 13.901 17.3289 13.8477Z" fill="white"/>
<path fill-rule="evenodd" clip-rule="evenodd" d="M8.9009 12.6255C9.12756 12.9097 9.40506 13.0872 9.69506 13.2364C10.1201 13.4547 10.5617 13.5922 11.0117 13.6947C11.4509 13.7955 11.8934 13.8572 12.3384 13.8864C13.1984 13.9422 14.0542 13.8964 14.9051 13.7155C15.4226 13.6047 15.9309 13.4489 16.4142 13.1814C16.6726 13.0389 16.9192 12.868 17.1192 12.6055C17.2584 12.4222 17.3326 12.2097 17.3309 11.9447C17.3251 11.2022 17.3259 9.65802 17.3242 9.62052C17.2259 9.69052 17.1392 9.75802 17.0484 9.81802C16.3476 10.288 15.5876 10.5039 14.8126 10.643C14.4517 10.708 14.0876 10.7464 13.7234 10.7772C13.0192 10.8364 12.3159 10.8089 11.6142 10.7147C11.1067 10.6464 10.6034 10.5372 10.1092 10.3705C9.71673 10.2397 9.33506 10.0764 8.9759 9.83219C8.87923 9.76552 8.78423 9.69469 8.6759 9.61719C8.6759 9.66635 8.68006 11.1997 8.6734 11.9314C8.6709 12.2122 8.74923 12.4355 8.9009 12.6255Z" fill="white"/>
<path fill-rule="evenodd" clip-rule="evenodd" d="M9.57154 6.65082C9.31904 6.79165 9.07904 6.95915 8.88571 7.21748C8.72488 7.43165 8.62988 7.67665 8.69821 7.98415C8.74071 8.17832 8.83904 8.32832 8.95404 8.45916C9.20321 8.73999 9.49904 8.91499 9.80571 9.06082C10.359 9.32332 10.934 9.46749 11.5165 9.56083C12.009 9.63916 12.5032 9.67916 12.9015 9.67166C13.8324 9.67333 14.6574 9.57999 15.4699 9.33832C15.8749 9.21749 16.2707 9.05916 16.6407 8.81083C16.844 8.67499 17.0349 8.51499 17.1815 8.28248C17.3757 7.97332 17.3791 7.61498 17.1815 7.31082C17.1132 7.20665 17.0349 7.11082 16.9507 7.02915C16.6357 6.72332 16.2724 6.54582 15.899 6.39998C15.2349 6.13915 14.5515 6.01082 13.8615 5.95332C12.919 5.87332 11.9799 5.91415 11.0474 6.11915C10.5415 6.23082 10.044 6.38665 9.57154 6.65082Z" fill="white"/>
<g opacity="0.4">
<path fill-rule="evenodd" clip-rule="evenodd" d="M5.45322 10.8772C5.05322 10.8105 4.65321 10.7189 4.25321 10.6105C3.79488 10.4772 3.35321 10.2855 2.92821 9.99388C2.85321 9.93555 2.76988 9.87721 2.66988 9.81055C2.66988 9.86055 2.67821 11.3772 2.66988 12.0939C2.66155 12.4355 2.76988 12.6855 2.96155 12.8939C3.17821 13.1272 3.43655 13.2939 3.70321 13.4272C4.16988 13.6605 4.66155 13.8105 5.16988 13.9105C5.64488 14.0022 6.11988 14.0605 6.60321 14.0772C6.87821 14.0855 7.15321 14.0855 7.42821 14.0689V13.9355L7.41988 12.6689V12.6189C7.41988 12.5105 7.42821 12.3772 7.41988 12.2355C7.42821 12.0022 7.42821 11.7355 7.42821 11.4772V10.9772C7.24488 10.9939 7.05321 10.9939 6.86988 10.9939C6.39488 10.9939 5.91988 10.9605 5.45322 10.8772Z" fill="white"/>
<path fill-rule="evenodd" clip-rule="evenodd" d="M5.61159 6.66055C5.10326 6.58555 4.60326 6.47721 4.10326 6.31055C3.71159 6.18555 3.32826 6.01888 2.96992 5.77721C2.87826 5.71055 2.77826 5.63555 2.66992 5.56055C2.66992 5.61055 2.67826 7.14388 2.66992 7.87721C2.66992 8.15221 2.74492 8.37718 2.89492 8.56885C3.12826 8.85218 3.40326 9.02718 3.69492 9.17718C4.11992 9.40218 4.56159 9.53551 5.01159 9.63551C5.44492 9.73551 5.88659 9.80218 6.33659 9.82718C6.70326 9.85218 7.06992 9.86051 7.42826 9.84385L7.41992 7.95221C7.41992 7.5911 7.45326 7.17721 7.71992 6.71888C7.01992 6.77721 6.31159 6.75221 5.61159 6.66055Z" fill="white"/>
<path fill-rule="evenodd" clip-rule="evenodd" d="M2.95112 4.40211C3.20029 4.68378 3.49612 4.85795 3.80279 5.00378C4.35529 5.26628 4.93029 5.41045 5.51362 5.50378C6.00529 5.58211 6.50029 5.62211 6.89862 5.61461C7.82946 5.61628 8.6545 5.52378 9.467 5.28128C9.872 5.16045 10.267 5.00295 10.6378 4.75461C10.8412 4.61795 11.0312 4.45795 11.1778 4.22545C11.3728 3.91711 11.3753 3.55795 11.1778 3.25378C11.1103 3.14961 11.032 3.05378 10.9478 2.97211C10.6328 2.66711 10.2695 2.48961 9.89616 2.34295C9.232 2.08211 8.54866 1.95461 7.85779 1.89628C6.91612 1.81711 5.97696 1.85711 5.04446 2.06295C4.53779 2.17378 4.04112 2.32961 3.56862 2.59378C3.31612 2.73461 3.07529 2.90211 2.88196 3.16045C2.72112 3.37545 2.62696 3.62045 2.69446 3.92711C2.73779 4.12211 2.83529 4.27128 2.95112 4.40211Z" fill="white"/>
</g>
</svg>
