<svg xmlns="http://www.w3.org/2000/svg" width="18" height="18" viewBox="0 0 18 18" fill="none">
  <path d="M4.83398 13.9987V12.332M9.00065 13.9987V11.4987M13.1673 13.9987V9.83203M1.08398 8.9987C1.08398 5.26675 1.08398 3.40077 2.24335 2.2414C3.40273 1.08203 5.2687 1.08203 9.00065 1.08203C12.7326 1.08203 14.5986 1.08203 15.758 2.2414C16.9173 3.40077 16.9173 5.26675 16.9173 8.9987C16.9173 12.7306 16.9173 14.5966 15.758 15.756C14.5986 16.9154 12.7326 16.9154 9.00065 16.9154C5.2687 16.9154 3.40273 16.9154 2.24335 15.756C1.08398 14.5966 1.08398 12.7306 1.08398 8.9987Z" stroke="#202126" stroke-width="1.5" stroke-linecap="round" stroke-linejoin="round"/>
  <path d="M3.99414 8.57009C5.79006 8.62994 9.8624 8.3589 12.1788 4.68264M10.6609 4.2385L12.2238 3.98695C12.4143 3.9627 12.694 4.11309 12.7628 4.29236L13.176 5.65773" stroke="#202126" stroke-width="1.5" stroke-linecap="round" stroke-linejoin="round"/>
</svg>