<svg xmlns="http://www.w3.org/2000/svg" width="21" height="20" viewBox="0 0 21 20" fill="none">
  <path d="M5.5 7.5V12.5C5.5 14.1667 6.33333 15 8 15H13C14.6667 15 15.5 14.1667 15.5 12.5V10C15.5 9.5 15.1667 9.16667 14.6667 9.16667C14.1667 9.16667 13.8333 8.83333 13.8333 8.33333V7.5C13.8333 5.83333 13 5 11.3333 5H8C6.33333 5 5.5 5.83333 5.5 7.5Z" stroke="#202126" stroke-width="1.5" stroke-miterlimit="10"/>
  <path d="M8.83398 8.33203H10.5007" stroke="#202126" stroke-width="1.5" stroke-miterlimit="10" stroke-linecap="round" stroke-linejoin="round"/>
  <path d="M8.83398 11.668H12.1673" stroke="#202126" stroke-width="1.5" stroke-miterlimit="10" stroke-linecap="round" stroke-linejoin="round"/>
  <path d="M12.9993 18.3346H7.99935C3.83268 18.3346 2.16602 16.668 2.16602 12.5013V7.5013C2.16602 3.33464 3.83268 1.66797 7.99935 1.66797H12.9993C17.166 1.66797 18.8327 3.33464 18.8327 7.5013V12.5013C18.8327 16.668 17.166 18.3346 12.9993 18.3346Z" stroke="#202126" stroke-width="1.5" stroke-linecap="round" stroke-linejoin="round"/>
</svg>