<svg xmlns="http://www.w3.org/2000/svg" width="20" height="20" viewBox="0 0 20 20" fill="none">
  <path d="M13.9173 15.8148H6.08399C5.73399 15.8148 5.34232 15.5398 5.22565 15.2065L1.77565 5.55651C1.28399 4.17318 1.85899 3.74818 3.04232 4.59818L6.29232 6.92318C6.83399 7.29818 7.45065 7.10651 7.68399 6.49818L9.15065 2.58984C9.61732 1.33984 10.3923 1.33984 10.859 2.58984L12.3257 6.49818C12.559 7.10651 13.1757 7.29818 13.709 6.92318L16.759 4.74818C18.059 3.81484 18.684 4.28984 18.1507 5.79818L14.784 15.2232C14.659 15.5398 14.2673 15.8148 13.9173 15.8148Z" stroke="#202126" stroke-width="1.5" stroke-linecap="round" stroke-linejoin="round"/>
  <path d="M5.41602 18.332H14.5827" stroke="#202126" stroke-width="1.5" stroke-linecap="round" stroke-linejoin="round"/>
  <path d="M7.91602 11.668H12.0827" stroke="#202126" stroke-width="1.5" stroke-linecap="round" stroke-linejoin="round"/>
</svg>